<?xml version="1.0" encoding="utf-8"?>
<!-- Generator: Adobe Illustrator 24.1.1, SVG Export Plug-In . SVG Version: 6.00 Build 0)  -->
<svg version="1.1" id="Layer_1" xmlns="http://www.w3.org/2000/svg" xmlns:xlink="http://www.w3.org/1999/xlink" x="0px" y="0px"
	 viewBox="0 0 49.7 49.8" style="enable-background:new 0 0 49.7 49.8;" xml:space="preserve">
<style type="text/css">
	.st0{clip-path:url(#SVGID_2_);}
	.st1{fill:#FFFFFF;}
	.st2{fill:#E0242B;}
	.st3{fill:#EDEDED;}
</style>
<g>
	<g>
		<g>
			<g>
				<defs>
					<path id="SVGID_1_" d="M4.6,25c0,11.2,9.1,20.3,20.3,20.3S45.2,36.2,45.2,25S36.1,4.6,24.9,4.6l0,0C13.7,4.6,4.6,13.7,4.6,25"
						/>
				</defs>
				<clipPath id="SVGID_2_">
					<use xlink:href="#SVGID_1_"  style="overflow:visible;"/>
				</clipPath>
				<g class="st0">
					<rect x="0.7" y="0.7" class="st1" width="48.4" height="48.4"/>
					<path class="st2" d="M38.9,16.8c-0.2,0-0.7-0.2-0.9-0.5c0.1,0.2,0.1,0.5,0.2,0.7c-0.4,0.1-0.1,0.5,0.2,0.5c0.1,0-0.1-0.3,0-0.3
						s0.3,0.2,0.4,0.2s0.3-0.3,0.3-0.3S39.1,16.9,38.9,16.8z"/>
					<path class="st2" d="M39.1,19.7c0-0.5,0-1.5-0.5-1.8s0.5,1.4-0.5,1.1c0,0.2-0.1,0.4,0,0.5c-0.6-0.2-0.7,0.2-1.1,0.6
						c0.2,0.2,0.3,0.5,0.5,0.7c0.2-0.4,0-0.7-0.3-0.9c0.2,0,0.3-0.1,0.5-0.1S38,20,38.2,20C38.5,19.9,38.8,19.7,39.1,19.7z"/>
					<path class="st2" d="M38,19.8c-0.3-0.1-0.5,0.1-0.2,0.4c0-0.2,0.1-0.1,0.2-0.1C38,20.1,38,19.9,38,19.8z"/>
					<path class="st2" d="M36.9,26.9c0.1,0,0.3-0.3,0.2-0.3s-0.3-0.1-0.3-0.1L36.9,26.9z"/>
					<path class="st2" d="M37.3,26.9c-0.3-0.2-0.1,0.2-0.1,0.4c0.2-0.2,0.2-0.4,0.2-0.7C37.3,26.7,37.3,27,37.3,26.9z"/>
					<path class="st2" d="M37.6,26.3c-0.1,0-0.2,0-0.2,0l0.2,0.4h-0.2c0,0,0.1,0.3,0.2,0.4s0-0.4,0-0.4s0.1,0.1,0.2,0.1
						S37.7,26.3,37.6,26.3z"/>
					<path class="st2" d="M36.1,27.2c0.1-0.2,0.2-0.4,0.2-0.6c-0.1,0.3-0.3,0.6-0.5,0.9C35.9,27.4,36,27.4,36.1,27.2z"/>
					<path class="st2" d="M36.2,25.3c0.1,0.1,0.1,0.4,0.3,0.2c0,0.3,0.3,0.6,0.5,0.5s0-0.1,0.1-0.1c0.1,0.1,0.2,0.3,0.3,0.3
						c-0.1-0.4-0.5-0.5-0.7-0.8s0.2-0.8-0.1-1.1c-0.3-0.2-0.5,0.4-0.3,0.7c-0.1,0,0,0-0.1-0.1C36.2,25.1,36.2,25.2,36.2,25.3z"/>
					<path class="st2" d="M38,28.2c0.1-0.3,0.1-0.9-0.2-1.1c-0.1,0,0.1,0.2,0,0.2c-0.4,0.1-0.7,0.1-0.8,0.6c0.5-0.4,0.5,0.2,0.8,0.4
						c0-0.1,0.1-0.5,0.1-0.5C37.9,27.8,38,28.3,38,28.2z"/>
					<path class="st2" d="M36.5,26.1c0.1,0,0-0.2-0.2-0.2C36.4,25.9,36.4,26.1,36.5,26.1z"/>
					<path class="st2" d="M43.2,34.7c-0.2-0.5-0.5-0.9-0.6-1.5c0-0.1,0.2,0,0.2,0c-0.5-0.7-1-1.5-1.9-1.8c-0.4-0.1-0.7,0.4-1.1,0.1
						c-0.4-0.3-0.1-1.1-0.9-0.7c0.1,0.2,0.5,0.5,0.6,0.6s-0.4,0-0.4,0.1s0.1,0.4,0.2,0.4s0.1-0.1,0.2-0.1c0.6,0.6,1.3,1,0.6,1.8
						c0.4-0.1,0.6,0.4,0.9,0.4s0.4-0.4,0.6-0.3C42.4,33.7,42.6,34.4,43.2,34.7z"/>
					<path class="st2" d="M36,23.3c0.1-0.4,0.1-0.7-0.1-1C35.6,22.7,35.7,23,36,23.3z"/>
					<path class="st2" d="M41.9,39.3c0-0.2,0-0.4,0-0.6c0-0.1-0.2-0.1-0.2-0.1c0.1-0.6-0.3-1-0.3-1.5c-0.1-0.5,0.1-1,0-1.4
						c0-0.1-0.2,0.2-0.2,0.1c0-0.4,0.1-0.9,0-1.4c-0.4,0.7-0.9,2.9-1.7,1.7c-0.2-0.3-0.2-0.4-0.2-0.7s0.5-0.3,0.4-0.6
						s-0.8-0.4-1.1-0.6c0.1,0.3-0.7,0.9-0.9,1.2c-0.3-0.2-0.5-0.4-0.9-0.3c-0.4,0.1-0.6,0.7-0.7,0.8C36,36.1,36.1,36,36,36
						s0-0.2,0-0.2c-0.4,0.5-0.7,0.9-1.3,1c-0.6,0.2-1.1,0.3-1.5,0.6c-0.1,0,0.1-0.3,0-0.2c-0.3,0.4-0.5,0.8-0.5,1.4l-0.1-0.2
						c0,0,0,0.3-0.1,0.3c0,0-0.1-0.1-0.1-0.2c-0.1,0.7-0.1,1.5-0.3,2.2C32,41,31.7,41.1,32,41.4c0.3,0.3,0.6-0.1,0.9-0.2
						c0.7-0.1,1.3-0.2,2-0.3c1.1-0.1,1.4,0.1,1.6,1.2c0.2-0.2,0.5-0.4,0.8-0.6c-0.1,0.3-0.3,0.5-0.6,0.7c0.1,0,0.4-0.3,0.4-0.2
						c0.1,0-0.3,0.2-0.2,0.4c0.3,0.4,0.3,1.5,1.1,0.9c0.1,0.1-0.2,0.1-0.1,0.1C39.9,44.3,42,41,41.9,39.3z"/>
					<path class="st2" d="M33.6,23.8c-0.4,0.1-0.3,0.7,0,0.5S33.8,23.8,33.6,23.8z"/>
					<path class="st2" d="M15.2,18.8c-0.1,0-0.2,0.1-0.3,0.1c0.2,0.2,0.6,0.1,0.5-0.1S15.3,18.8,15.2,18.8z"/>
					<path class="st2" d="M10.5,13.2c0.2-0.2,0-0.4-0.2-0.2C10.2,13,10.4,13.3,10.5,13.2z"/>
					<path class="st2" d="M9.7,17c0-0.2,0.1-0.3,0.1-0.5C9.5,16.7,9.6,16.8,9.7,17z"/>
					<path class="st2" d="M6.9,13.1c0,0.1,0.1-0.2,0.2,0s0.3,0.2,0.3,0.4c0,0.2-0.4,0-0.3,0.4c0,0.1-0.2,0-0.2,0.1
						c0,0,0.4,0.1,0.4,0.2s-0.4,0.2-0.5,0.3c0.6,0,1.5,0,1.7-0.7c-0.4-0.2-0.5-0.7-1-0.9c0.1-0.1,0.2-0.4,0.2-0.4c0-0.1-0.4,0-0.4,0
						c0-0.1,0.2-0.2,0.2-0.3C6.9,12.1,6.7,12.7,6.9,13.1z"/>
					<path class="st2" d="M13.2,18.8c-0.1,0-0.3,0-0.3-0.1c0,0-0.1,0.1,0,0.1s0.6,0.1,0.6,0C13.5,18.8,13.3,18.8,13.2,18.8z"/>
					<path class="st2" d="M35.5,33.1c0,0,0.3,0,0.2-0.1c0-0.1-0.4-0.1-0.5,0.1C35.2,33.2,35.4,33.1,35.5,33.1z"/>
					<path class="st2" d="M37,31.8c0-0.2-0.3-0.7-0.3-0.9c0-0.1,0.4-0.2,0.4-0.2s0.1-0.2,0-0.2c-0.3,0.1-1.1,0-0.6-0.4
						c0.5-0.3,0.9,0.4,1.1-0.4c-0.3,0.4-0.7,0-1.1,0.1S35.9,30.7,36,31c0,0.3,0,0.9,0.1,1c0.2,0.2,0.3-0.8,0.4-0.9
						c0,0.2,0,0.6,0.1,0.7c0,0.1,0.2-0.1,0.2-0.1c0,0.1-0.1,0.4,0,0.4C36.9,32.1,37,32,37,31.8z"/>
					<path class="st2" d="M33.9,30.6c0.2,0.6,0.9,0.9,1.5,1c0.2-0.6,0.3-1.3,0.9-1.6c-0.3-0.6-0.3-0.9,0.1-1.5
						c-0.2-0.1-0.4-0.5-0.7-0.4c-0.3,0.1-0.5,0.6-0.7,0.8C34.3,29.5,33.6,29.5,33.9,30.6z"/>
					<path class="st2" d="M39.7,32.6c0,0-0.2,0.2-0.2,0.4C39.5,32.9,39.7,32.6,39.7,32.6z"/>
					<path class="st2" d="M38,31.5c0-0.1-0.2-0.1-0.2,0C37.8,31.7,38,31.5,38,31.5z"/>
					<path class="st2" d="M36,33.7c0-0.1-0.1-0.4-0.3-0.2C35.7,33.4,36,33.7,36,33.7z"/>
					<path class="st2" d="M36.7,33.1c0-0.1-0.6-0.1-0.6,0C36.1,33.3,36.6,33.3,36.7,33.1z"/>
					<path class="st2" d="M33.8,32.7c0.4,0.1,0.8,0.2,1.2,0.2c-0.6-0.4-1.6-1.3-2.3-0.6C33.1,32.4,33.4,32.6,33.8,32.7z"/>
					<path class="st2" d="M32.9,31.4c0.1-0.9-1.2-3.1-2.5-3c0.4,0.7,0.8,1.3,1.2,2C31.8,30.6,32.8,32.9,32.9,31.4z"/>
					<path class="st2" d="M38.5,31.6c0.1,0,0.3,0.1,0.4,0.2c-0.1-0.4-0.4-0.5-0.7-0.2C38.3,31.6,38.4,31.5,38.5,31.6z"/>
					<path class="st2" d="M38.3,30.7c0.1-0.4,0.2-0.6,0-1C38.2,30,38.2,30.4,38.3,30.7z"/>
					<path class="st2" d="M37,33.7c0.1-0.1,0.6-0.4,0.8-0.5c-0.5-0.1-0.9,0.2-1.1,0.5C36.7,33.8,36.9,33.8,37,33.7z"/>
					<path class="st2" d="M6,13.9c0,0.1-0.2,0.3-0.2,0.3C6,14.3,7,14,6.7,13.5C6.5,12.9,6,13.5,6,13.9z"/>
					<path class="st2" d="M9.5,17.3L9.5,17.3z"/>
					<path class="st2" d="M10.9,18c-0.1,0-0.5-0.1-0.5,0s0.3,0.4,0.5,0.4C11,18.3,11,18,10.9,18z"/>
					<path class="st2" d="M26.8,27.1c0-0.1-0.1-0.1-0.2-0.2C26.4,28.2,27.3,28.1,26.8,27.1z"/>
					<path class="st2" d="M19.3,33.8c0-0.1-0.1-0.5-0.1-0.5c-0.1,0-0.3,0.4-0.4,0.5c-0.2,0.5-0.8,0.7-1,1s0,0.6-0.1,0.9
						c-0.1,0.3-0.3,0.5-0.4,0.8c-0.1,0.7,0.3,1.3,0.9,0.6s0.8-1.9,0.9-2.8c0.1,0-0.1,0.2,0.1,0.2C19.5,34.6,19.3,34,19.3,33.8z"/>
					<path class="st2" d="M30.5,24.8c-0.9,0.1-1-1.6-1.7-2.1c-0.1,0.1,0.1,0.3,0,0.3c-0.2,0-0.5,0-0.7,0.1c-0.1,0.8-1,1.1-1.3,1.7
						c-0.3,0.7-0.1,1.5-0.3,2.1c0,0.2-0.3,0.3-0.4,0.4C25.2,26,25,24.5,24.7,23c-0.6,0.4-1-0.5-1.3-0.8s-0.5-0.4-0.9-0.4
						c-0.4-0.1-0.7,0-1.1-0.1s-0.4-0.4-0.7-0.6c-0.3-0.1-0.5,0.2-0.8,0c-0.4-0.2-0.6-1.1-1.2-0.8c0.1,0.6,0.6,1.1,0.8,1.6
						c0-0.1,0.1-0.3,0.1-0.4c0.2,1,0.8,0.6,1.2-0.1c-0.1,0.5,0.4,0.6,0.6,0.9c0.3,0.5,0.1,0.5-0.1,1c-0.3,0.7-0.6,0.9-1.2,1.3
						c-0.6,0.4-1.5,1.3-2.2,0.8c-0.3-0.3,0-0.6-0.2-1s-0.5-0.7-0.7-1.1c-0.5-0.8-1.3-1.9-1.2-2.8c-0.1,0.1-0.1,0.5-0.2,0.5
						c-0.1-0.1-0.3-0.5-0.4-0.6c0.1,0.6,0.4,1.1,0.7,1.7c0.3,0.6,0.3,1,0.6,1.6c0.3,0.6,1.5,1.5,1.4,2.3c0.6,0.6,1.3,0.3,2,0
						c-0.3,2.4-2.8,3.4-2.9,5.7c-0.1,1.1,0.4,2.1-0.4,3c-0.5,0.6-0.9,0.6-1,1.3c-0.1,0.4,0.1,0.8-0.1,1.1s-0.5,0.1-0.6,0.4
						c-0.1,0.3,0,0.3-0.1,0.6c-0.2,0.3-0.5,0.9-0.8,1.2s-0.9,0.6-1.2,0.7c-0.3,0.1-1.1,0.3-1.2,0.2c-0.6-0.3-0.2-0.5-0.3-1
						c-0.1-0.5-0.4-1.2-0.6-1.9c-0.1-0.6-0.1-1.5-0.3-2.1c-0.2-0.6-0.3-1.1-0.1-1.7c0.3-0.8,0.4-1.7,0.1-2.4s-0.8-1-0.8-1.7
						c0-0.6,0.2-0.9-0.2-1.4c-0.8,0.4-1.1-0.4-2-0.2c-0.6,0.1-1.5,0.8-2.2,0.6c-1.5-0.5-1.8-2.4-2.4-3.7c0.6-0.8,0.1-1.7,0.4-2.5
						c0.1-0.4,0.3-0.8,0.6-1.1c0.3-0.4,0.8-0.5,1.2-0.9c0.4-0.4,0.5-1,1.1-1.4s0.5-0.2,1.3-0.3c0.7-0.1,2.1-0.9,2.9-0.4
						c0.1,0,0.1-0.1,0.2-0.1c-0.2,0.5-0.4,0.9,0.1,1.2c0.5,0.4,1.2,0.8,1.8,0.6c0.1,0,0.1-0.5,0.5-0.5c0.3,0,0.4,0.2,0.8,0.4
						c0.3,0.1,1.3-0.1,1.6,0.2c0.9-0.1,0.9-1.1,0.9-1.8c-0.4,0-1.2,0.3-1.5,0.1c-0.9-0.4-0.7-1,0.1-1.4c0.3-0.2,0.9-0.2,1.3-0.3
						c0.4,0,0.7,0.6,1.1,0.2s-0.6-1-1-1.2c0.2-0.1,0.1-0.2,0.2-0.4s0.2-0.1,0.3-0.2c-0.3,0-1.2,0.4-0.5,0.5
						c-0.3,0.3-0.7,0.4-0.9,0.1c-0.1-0.1,0.2-0.1,0.2-0.2c-0.8-0.4-1.6,0.8-0.9,1.4c-0.2,0.1-0.4,0.2-0.6,0.4
						c-0.1-0.3-0.3-0.2-0.5-0.1c-0.1,0,0.2,0.1,0.1,0.1s-0.2,0-0.3-0.1c0,0.3,0.1,0.5,0.2,0.8c0,0.1-0.2-0.1-0.2,0s0,0.1-0.1,0.1
						s0.1,0.2,0,0.3c-0.8-0.1-0.7-1-0.9-1.5c-0.2-0.5-0.9-0.8-1.2-0.9s0-0.2,0-0.2c-0.9,0.2,0.6,1.3,0.9,1.6
						c-0.4-0.2-0.3,0.3-0.7,0.6c0.3-0.7-0.5-0.9-0.9-1.3c-0.4-0.3-0.3-0.4-0.7-0.4c-0.4-0.1-0.9,0.3-1.1,0.5
						c-0.7,0.5-0.9,1.2-1.5,1.5S6.2,17.9,5.6,18c0-0.5,0-1.4,0.4-1.8c0.4-0.4,1.2,0.3,1.6-0.1c0.6-0.6-0.1-0.9-0.5-1.4
						c0.2,0,0.5,0,0.6,0s-0.1-0.3,0-0.3c0.4,0.1,0.8-0.2,1-0.4s0.7-0.5,0.9-0.7c0.2-0.2,0.3,0.1,0.3-0.1c0.1-0.2-0.1-0.1,0-0.3
						c0.1-0.2,0.1-0.6,0.4-0.7l0.1,0.3c-0.7,0.8,0.8,0.5,1.2,0.4c0.4-0.1,0.6,0,0.9-0.3c0.2-0.3,0-0.9,0.6-0.5c0-0.1,0-0.3,0-0.4
						c-0.1-0.1-0.2-0.1-0.2-0.2c0.3-0.1,0.7-0.1,1-0.3c-0.5-0.2-1.2,0.4-1.5-0.1s0.2-1,0.6-1.3c-0.4-0.6-0.8,0.2-0.9,0.5
						c-0.4,0.7-0.2,0.8-0.3,1.6c0,0.2-0.4,1.1-0.8,1s-0.3-0.8-0.8-0.9c-0.4-0.1-1.2,0.5-0.9-0.7c0.1-0.4,0.8-0.9,1.2-1.4
						c0.8-1,1.8-2.1,3.3-1.6c0,0-0.3,0.1-0.2,0.1c0.4,0.1,1.8,0.1,2,0.6c0.4,0.8-0.9,0.4-1.2,0.5c0.3,0.2,0.5,0.6,0.9,0.7
						c0-0.1-0.2-0.2-0.1-0.2c0.1-0.1,0.6,0,0.7-0.1c0.1,0-0.2-0.2-0.1-0.2c0.2-0.2,0.4-0.4,0.7-0.2c0-0.3-0.1-0.5-0.2-0.7
						c0.2-0.1,0.5,0.1,0.6,0.2s-0.2,0-0.2,0c0.4,0.4,1.1-0.3,1.5-0.4c0,0-0.2,0.2-0.1,0.2c0.3,0,0.9-0.1,1.2-0.3
						c0.1-0.1-0.3-0.1-0.2-0.2c0.5-0.2,1.2,0.1,1.7,0.3c0.1,0,0.1-0.1,0.1-0.2c-0.4-0.2-1.1-1.1-0.1-1.1c0.5,0,1.1,1.3,0.8,1.7
						c0.2,0,0.5-0.2,0.5-0.4c-0.1-0.3-0.6-0.7-0.7-1c0-0.1,0.2-0.1,0.2-0.2s-0.2-0.2-0.1-0.1l0.4,0.4c0,0-0.2-0.1-0.1-0.1
						c0.3-0.1,0.6-0.2,1,0c-0.2-0.1-0.3-0.3-0.4-0.5C22.7,7,23.2,7,23.4,7c0.1,0-0.3-0.1-0.2-0.2c0.6-0.5,1.4-0.5,2.2-0.5
						c0.1-0.4,0.4-0.4,0.7-0.3c0-0.1,0.2-0.3,0-0.3c0.7,0.1,1.4,0,1.9,0.6c-0.2,0.1-0.4,0.2-0.6,0.3C28.3,6.7,29.1,7,30,7.1
						c0-0.1-0.1-0.2-0.2-0.2c0.8,0.1,1.3,0.7,2,1c0.1,0-0.1-0.3-0.1-0.3c0.5,0.2,1,0.2,1.4,0.2c0-0.1-0.4-0.2-0.3-0.3
						c0.5-0.2,1.3,0.1,1.8,0.3c0.6,0.2,1.1,0.3,1.7,0.6c0.9,0.4,1.8,0.9,2.8,1C39,9.3,38.8,9.1,38.7,9c1.3,0.5,2.1,0.9,3,2
						c-0.1,0-0.3,0-0.4,0c0.4,0.2,0.7,0.4,0.9,0.8c-0.5-0.2-1,0-1.1,0.6c-0.4-0.3-0.8-0.2-1.3-0.2c0,0.6,0.5,0.8,0.8,1.2
						c0,0.1-0.2-0.1-0.1,0s0.2,0.3,0.2,0.4s-0.2,0.1-0.2,0.1c0,0.1,0.1,0.3,0.1,0.3c0,0.1-0.2,0-0.2,0.1c0,0.2,0,0.3,0,0.5
						c-0.6-0.6-1.2-1.3-1.4-2.2c0.5-0.3,0.8-1,0.2-1.3c0,0.7-0.1,0.2-0.6,0.2c-0.4,0-0.7,0.2-0.3,0.6c-0.5,0.1-1-0.2-1.6-0.2
						c-0.9,0-1.1,0.4-1.5,1.1c1.1,0.4,1.7,0.8,2,1.9c0.1,0.4,0.1,1.2-0.2,1.6c-0.2,0.3-0.5,0.2-0.7,0.4c-0.2,0.3-0.3,0.4-0.3,0.7
						c0,0.3,0.3,0.4,0.5,0.7c0.6,1.3-0.5,0.9-0.4,0.2c-0.2-0.2-0.3-0.4-0.6-0.7s-0.5-0.4-0.9-0.1c0.3-0.9-0.7-0.5-0.7-0.1
						c0,0.8,0.8,0.4,1.2,0.8c-1,0.4,0.4,1.6,0.5,2.2c0.2,1.1-0.4,1.7-1.2,2.3c-0.3,0.2-0.5,0.2-0.6,0.3s0.1,0.3-0.1,0.3
						s0.1-0.1-0.2-0.2c-0.3-0.1-0.8-0.2-0.8,0.6c0.1,0.5,0.9,1,1.1,1.6s-0.4,1.2-0.8,1.6c-0.1-0.6-0.6-1.1-1.2-1.3
						c-0.1,0,0-0.2,0-0.2s-0.2-0.1-0.2,0c0,0.4-0.1,0.9,0,1.3c0.1,0.4,0.4,0.6,0.6,0.9c0.3,0.6,0.4,1.1,0.7,1.7
						c-1-0.4-1-1.5-1.5-2.2c0,0-0.1,0.2,0,0.1C31.5,27.1,31.1,24.8,30.5,24.8z"/>
					<path class="st2" d="M13.1,27l-0.2-0.1L13.1,27z"/>
					<path class="st2" d="M19.8,18.1c-0.1-0.4-0.3-0.8-0.4-1.2c0.1,0,0.4,0.1,0.4,0c0-0.2-0.4-0.5-0.4-0.1c-0.1-0.5-0.5-0.7-0.7-1.1
						c0-0.1,0.2,0,0.2,0c0.1-0.2,0-0.2,0.3-0.2c0-0.7-0.7-0.7-1-0.1s0,1.4,0.6,1.8C18.2,17.8,19.1,18.4,19.8,18.1z"/>
					<path class="st2" d="M11.1,6c0.3,0.1,0.9,0.1,1.2-0.2c-0.6-0.1-1.1-0.1-1.7,0C10.9,6,10.8,5.9,11.1,6z"/>
					<path class="st2" d="M11.6,6.6c0,0.1,0.3-0.1,0.3-0.1c-0.1,0-0.6-0.1-0.6,0s0,0.1,0,0.1C11.3,6.6,11.6,6.5,11.6,6.6z"/>
					<path class="st2" d="M10,6.5c0.1,0.1,0.2,0.1,0.2,0.1v0.1c0.6,0.3,0.7-0.3,1.2-0.5C10.8,6,10.2,6.1,9.6,6.1
						C9.7,6.3,9.9,6.5,10,6.5z"/>
					<path class="st2" d="M15.4,5.6c0.2,0,0.5,0,0.7-0.1c-0.4,0-0.7,0-1.1,0.1C15.2,5.5,15.3,5.6,15.4,5.6z"/>
					<path class="st2" d="M17.2,7.8C17.4,8.1,18,8,18.3,8c-1.3-0.5,0.8-1.4,1.3-1.7c-0.7-0.2-1.5,0.1-2,0.5
						c-0.2,0.1-0.1,0.2-0.3,0.3c0,0,0.2,0,0.1,0C17.3,7.3,17,7.6,17.2,7.8z"/>
					<path class="st2" d="M23.2,5.4c0.3,0.1,0.8,0.2,1.2,0.2c-0.5-0.5-1.1-0.7-1.7-0.3C22.9,5.2,22.9,5.4,23.2,5.4z"/>
					<path class="st2" d="M31.8,7c0.3,0,0.6,0,0.9,0c-0.3-0.5-0.9-0.5-1.4-0.5C31.4,6.8,31.5,7,31.8,7z"/>
					<path class="st2" d="M25.2,5.6c-0.2-0.2-0.7-0.3-0.8,0.1C24.5,5.8,25.3,5.7,25.2,5.6z"/>
					<path class="st2" d="M32.6,7.3c-0.1,0-0.3,0.1-0.2,0.1c0,0.1,0.5,0.2,0.6,0.1S32.7,7.3,32.6,7.3z"/>
					<path class="st2" d="M36.9,14.3c0.4,0.5,0.7,1.3,1.1,1.9V16l0.2,0.2c-0.1-0.2-0.6-0.7-0.5-1c0-0.1,0.3,0.2,0.4,0.1
						c-0.5-0.6-0.8-1.3-1.4-1.7C36.8,13.8,36.6,14,36.9,14.3z"/>
					<path class="st2" d="M33.4,7.1c0.1,0.1,0.4,0.1,0.4,0C33.7,7,33.2,6.9,33,6.9C33,7,33.3,7.1,33.4,7.1z"/>
					<path class="st2" d="M39.9,9.2c0,0-0.1-0.2-0.2-0.2c0,0-0.1,0-0.1,0.1C39.6,9.2,39.8,9.2,39.9,9.2z"/>
				</g>
			</g>
		</g>
	</g>
</g>
<path class="st3" d="M24.9,0.7C11.6,0.7,0.7,11.5,0.7,25c0,13.3,10.8,24.2,24.2,24.2S49.1,38.4,49.1,25S38.2,0.7,24.9,0.7z
	 M24.9,45.3C13.7,45.3,4.6,36.2,4.6,25c0-11.3,9.1-20.4,20.3-20.4S45.2,13.8,45.2,25C45.2,36.2,36.1,45.3,24.9,45.3z"/>
</svg>
